<svg id="Layer_1" data-name="Layer 1" xmlns="http://www.w3.org/2000/svg" viewBox="0 0 510.24 510.24"><defs><style>.cls-1{fill:#fff;}</style></defs><title>Rugby-Ball-Reverse</title><rect width="510.24" height="510.24"/><path class="cls-1" d="M440.24,214.9c12.1-49.34,3.92-91.35-23-118.3s-69-35.13-118.3-23c-47.74,11.71-97,41.17-138.84,83s-71.26,91.1-83,138.84c-12.1,49.34-3.92,91.35,23,118.3s69,35.13,118.3,23c47.74-11.71,97-41.17,138.84-83S428.53,262.64,440.24,214.9ZM94.59,299.65c10.93-44.59,38.71-90.9,78.21-130.39S258.61,102,303.2,91.05c24.86-6.1,47.37-6.48,66.25-1.42-23.79,44.56-66.5,100.31-121.22,155S137.74,342.11,93.17,365.9C88.11,347,88.5,324.51,94.59,299.65ZM214.15,419.21c-28.36,7-53.66,6.49-74-1,23.83-44.51,66.45-100.11,121-154.69C318.53,206.14,377,162,422.55,139c6.71,19.93,6.89,44.37.2,71.63C411.82,255.2,384,301.51,344.55,341S258.74,408.28,214.15,419.21Z"/></svg>